<mxfile host="app.diagrams.net" modified="2023-10-16T17:39:32.806Z" agent="Mozilla/5.0 (Windows NT 10.0; Win64; x64) AppleWebKit/537.36 (KHTML, like Gecko) Chrome/117.0.0.0 Safari/537.36" version="22.0.4" etag="mNNZuHqp_xVM7Pc0kO0Y" type="github">
  <diagram name="Page-1" id="mQhmO4oM-duH7WWDAeiW">
    <mxGraphModel>
      <root>
        <mxCell id="0" />
        <mxCell id="1" parent="0" />
      </root>
    </mxGraphModel>
  </diagram>
</mxfile>
